<svg xmlns="http://www.w3.org/2000/svg" viewBox="0 0 1360.38 640.57"><defs><style>.cls-1{fill:#45147e;}</style></defs><g id="Capa_2" data-name="Capa 2"><g id="Capa_1-2" data-name="Capa 1"><path d="M56,555.35a54.94,54.94,0,0,1-21-4,57.37,57.37,0,0,1-17.41-11,53.88,53.88,0,0,1-12.2-16.6,51.75,51.75,0,0,1-5-20.81,48.25,48.25,0,0,1,0-12.4,50.91,50.91,0,0,1,5-20.4,56.51,56.51,0,0,1,12.2-16.81A55.71,55.71,0,0,1,35,442.13a55.13,55.13,0,0,1,21-4h76.81v34.41H56a20.69,20.69,0,0,0-14.6,5.8,27.8,27.8,0,0,0-7,23,21.65,21.65,0,0,0,7,14.21,20.65,20.65,0,0,0,14.6,5.8h27.6a54.24,54.24,0,0,1,21.21,4.2,55.63,55.63,0,0,1,17.4,11.4,58.41,58.41,0,0,1,12,16.8,51.92,51.92,0,0,1,5,20.81v11.2a49.65,49.65,0,0,1-4.61,21.4,63.22,63.22,0,0,1-12,17.41,51.78,51.78,0,0,1-17.6,11.8,56.7,56.7,0,0,1-21.8,4.2H4.4v-34H83.22a20,20,0,0,0,13.8-5.2,25.66,25.66,0,0,0,7.8-12.4v-1.6a4.26,4.26,0,0,1,.2-1.4,4.5,4.5,0,0,0,.2-1.4V577a22.41,22.41,0,0,0-6.6-15.41,20.94,20.94,0,0,0-15.4-6.2Z"/><path d="M232.94,436a75.75,75.75,0,0,1,35.4,8.4,82.29,82.29,0,0,1,27.41,22.8,87.12,87.12,0,0,1,27.6-22.8A75.44,75.44,0,0,1,359,436a76.39,76.39,0,0,1,31,6.4,81.14,81.14,0,0,1,42.6,42.6,76.39,76.39,0,0,1,6.4,31V640.44h-34.4V516a43.8,43.8,0,0,0-3.6-17.8A46.58,46.58,0,0,0,376.76,474a43.8,43.8,0,0,0-17.8-3.6,45.21,45.21,0,0,0-18,3.6,46.27,46.27,0,0,0-14.61,9.8,46.88,46.88,0,0,0-9.8,14.41A43.8,43.8,0,0,0,313,516V640.44h-34V516a43.63,43.63,0,0,0-3.6-17.8,45.12,45.12,0,0,0-10-14.41,49.48,49.48,0,0,0-14.6-9.8,43.8,43.8,0,0,0-17.8-3.6,45.22,45.22,0,0,0-18,3.6,46.11,46.11,0,0,0-14.6,9.8,46.7,46.7,0,0,0-9.8,14.41,43.8,43.8,0,0,0-3.6,17.8V640.44h-34V516a76.39,76.39,0,0,1,6.4-31,81.21,81.21,0,0,1,42.61-42.6A76.33,76.33,0,0,1,232.94,436Z"/><path d="M556.14,432a103,103,0,0,1,40.81,8.2,104.61,104.61,0,0,1,55.81,55.61,101.56,101.56,0,0,1,8.2,40.61v104H626.15V614a106.08,106.08,0,0,1-31.8,19.4,103.64,103.64,0,0,1-38.21,7,100.12,100.12,0,0,1-40.41-8.2,107.72,107.72,0,0,1-33-22.21,103.25,103.25,0,0,1-22.41-33,104.66,104.66,0,0,1,0-81.22,105.69,105.69,0,0,1,55.41-55.61A100.12,100.12,0,0,1,556.14,432Zm0,34.41a69.24,69.24,0,0,0-27.2,5.4,67.24,67.24,0,0,0-22.21,15,74,74,0,0,0-15,22.41,68.88,68.88,0,0,0,0,54.41,70.47,70.47,0,0,0,37.21,37.2,67,67,0,0,0,27.2,5.6,68.08,68.08,0,0,0,27.61-5.6,71.63,71.63,0,0,0,22.2-15,70.75,70.75,0,0,0,14.8-76.61A71.36,71.36,0,0,0,606,486.76a67.41,67.41,0,0,0-22.2-15A70.37,70.37,0,0,0,556.14,466.36Z"/><path d="M706.72,640.44H672.31v-100a96.72,96.72,0,0,1,8.8-40.8,102.93,102.93,0,0,1,24-33.21,116.29,116.29,0,0,1,35.4-22.2,114.26,114.26,0,0,1,43.41-8.2v34.4a82.61,82.61,0,0,0-30,5.4,78,78,0,0,0-24.61,15,70.08,70.08,0,0,0-16.6,22.4,63.33,63.33,0,0,0-6,27.2Z"/><path d="M795,434.64l34-.25h70v34H829l.06,116.45a20.4,20.4,0,0,0,6.2,15,20.88,20.88,0,0,0,15.4,6.21q9.2,0,15.4-8.41t6.2-20.4h34a68.07,68.07,0,0,1-16.2,44.61,54.74,54.74,0,0,1-17.6,13.6,49,49,0,0,1-21.81,5,54.48,54.48,0,0,1-21.8-4.4,56.8,56.8,0,0,1-29.81-29.6,53,53,0,0,1-4.4-21.61Z"/><path d="M993.11,501.13a66.48,66.48,0,0,1,31.51,7.55,70.44,70.44,0,0,1,23.83,20.26V438.11h13.77v132.4a67.12,67.12,0,0,1-5.43,26.88,69.49,69.49,0,0,1-36.8,36.8,69.25,69.25,0,0,1-53.76,0,69.4,69.4,0,0,1-36.8-36.8A67.12,67.12,0,0,1,924,570.51a68,68,0,0,1,5.43-27,69.12,69.12,0,0,1,36.8-36.94A67.29,67.29,0,0,1,993.11,501.13Zm0,14a53.16,53.16,0,0,0-21.45,4.37,57.57,57.57,0,0,0-17.61,11.78,55,55,0,0,0-16.28,39.19A53.32,53.32,0,0,0,942.13,592a56.13,56.13,0,0,0,29.53,29.52,54.83,54.83,0,0,0,42.9,0A56.07,56.07,0,0,0,1044.08,592a53.33,53.33,0,0,0,4.37-21.45,55.16,55.16,0,0,0-16.28-39.19,57.69,57.69,0,0,0-17.61-11.78A53.16,53.16,0,0,0,993.11,515.17Z"/><path d="M1154.63,640.42a68.24,68.24,0,0,1-27-5.43,69.18,69.18,0,0,1-36.94-36.81,67,67,0,0,1-5.42-26.88,68,68,0,0,1,5.42-27,68.76,68.76,0,0,1,36.94-36.94,68.06,68.06,0,0,1,27-5.43,67.09,67.09,0,0,1,26.88,5.43,69.1,69.1,0,0,1,36.81,36.94,68.14,68.14,0,0,1,5.42,27v3.45a25.31,25.31,0,0,1-.26,3.44H1099.55a53.88,53.88,0,0,0,6.09,19.07,58.32,58.32,0,0,0,12,15.35,53.54,53.54,0,0,0,16.82,10.33,55,55,0,0,0,20.12,3.71,36.92,36.92,0,0,0,14.57-2.92,38.18,38.18,0,0,0,12.18-8.2l9.8,9.79a52.39,52.39,0,0,1-16.29,11A50,50,0,0,1,1154.63,640.42Zm54.82-76a54.08,54.08,0,0,0-6.09-19.07,58.53,58.53,0,0,0-12-15.35,54.2,54.2,0,0,0-36.68-14,55,55,0,0,0-20.12,3.71A53.72,53.72,0,0,0,1117.69,530a58.32,58.32,0,0,0-12,15.35,53.88,53.88,0,0,0-6.09,19.07Z"/><path d="M1360.38,504.58,1303.45,637h-14.83l-56.93-132.39h15.09L1296,619.5l49.25-114.92Z"/><path class="cls-1" d="M842.37,120.12C798.18-29.21,636.45,3.64,516.19,2c3.66,51.34-11,184.29,12.64,230.46,40.42,103,184.63,134.69,264.77,59.09v42.13h55.57C846.67,287.44,855.73,163.14,842.37,120.12ZM644.29,62.17c23.79-8.65,52.55-8.39,76.08.13-2.35,27.54,10,80.17-32.34,81.08C635.35,149.15,644.36,96.86,644.29,62.17ZM785,211.05C717.37,362.69,494.14,231.33,594.05,98.6c-12.9,126.08,188.85,126.17,176.19.13C794.58,129.58,800.61,174.87,785,211.05Z"/></g></g></svg>